<?xml version="1.0" encoding="utf-8"?>
<!-- Generator: Adobe Illustrator 18.0.0, SVG Export Plug-In . SVG Version: 6.00 Build 0)  -->
<!DOCTYPE svg PUBLIC "-//W3C//DTD SVG 1.1//EN" "http://www.w3.org/Graphics/SVG/1.1/DTD/svg11.dtd">
<svg version="1.1" id="Layer_1" xmlns="http://www.w3.org/2000/svg" xmlns:xlink="http://www.w3.org/1999/xlink" x="0px" y="0px"
	 viewBox="0 0 1080 1080" enable-background="new 0 0 1080 1080" xml:space="preserve">
<path fill="#F93535" d="M471.3,231.4c2.6-2.6,2.6-7,0-9.6l-66.7-66.7c-2.6-2.6-7-2.6-9.6,0L180.6,369.4c-2.6,2.6-2.6,7,0,9.6
	l214.4,214.4c2.6,2.6,7,2.6,9.6,0l66.7-66.7c2.6-2.6,2.6-7,0-9.6l-138-138c-2.6-2.6-2.6-7,0-9.6L471.3,231.4z"/>
<path fill="#F93535" d="M683.3,155.1c-2.6-2.6-7-2.6-9.6,0L459.6,369.1c-2.6,2.6-2.6,7,0,9.6l66.7,66.8c2.6,2.6,7,2.6,9.6,0
	l137.8-137.8c2.6-2.6,7-2.6,9.6,0l61.7,61.7c2.6,2.6,2.6,7,0,9.6l-138,138c-2.6,2.6-2.6,7,0,9.6l66.7,66.7c2.6,2.6,7,2.6,9.6,0
	L897.6,379c2.6-2.6,2.6-7,0-9.6L683.3,155.1z"/>
<path fill="#424242" d="M307.6,785.6V831h51.4v21.1c-10.3,8.8-23.5,13.2-39.1,13.2c-16.6,0-30.3-5.4-41.8-16.4
	c-11.2-11.2-16.6-24.8-16.6-41.5c0-16.8,5.5-30.4,16.9-41.5c11.5-11.2,25.1-16.7,41.6-16.7c16.6,0,30,4.6,40.9,14
	c9.8-10.5,24.4-23.2,32.5-32.6c-20.3-18.6-45-27.9-73.4-27.9c-30.6,0-55.9,9.8-77.2,29.9c-21.4,20.2-31.7,44.7-31.7,74.8
	c0,30.1,10.4,54.6,31.8,74.8c21.1,19.7,47.1,29.6,77.2,29.6c34.5,0,66.7-15.5,86-41.3l0.7-1v-84H307.6z"/>
<polygon fill="#424242" points="625.3,705.8 591.2,816.8 558.7,705.8 519.3,705.8 486.9,816.8 452.8,705.8 402.6,705.8 464,908.8 
	505.9,908.8 538.9,800.7 571.9,908.8 613.8,908.8 675.2,705.8 "/>
<g>
	<polygon fill="#424242" points="689.3,705.8 675.2,752.4 735.4,752.4 735.4,908.8 792.4,908.8 792.4,752.4 852.5,752.4 
		852.5,705.8 	"/>
</g>
<rect fill="none" width="1078.2" height="1080"/>
</svg>
